# xmcd
#
# Track frame offsets: 
#        150
#        19945
#        36631
#        54708
#        84435
#
# Disc length: 2423 seconds
#
# Revision: 2
# Processed by: cddbd v1.5.2PL0 Copyright (c) Steve Scherf et al.
# Submitted via: ExactAudioCopyFreeDBPlugin 1.0
#
DISCID=3e097505
DTITLE=Mary J. Blige - Enough Cryin' [CDS)
DYEAR=2006
DGENRE=R&B
TTITLE0=Enough Cryin'
TTITLE1=Out My Head
TTITLE2=Be Without You (Moto Blanco Vocal Edit)
TTITLE3=Enough Cryin' (Instrumental)
TTITLE4=Mary J. Blige - Enough Cryis (feat.Brook-lyn) Video)
EXTD=
EXTT0=
EXTT1=
EXTT2=
EXTT3=
EXTT4=
PLAYORDER=
